# File produced by Open Asset Import Library (http://www.assimp.sf.net)
# (assimp v3.1.113183908)

mtllib KitchenCounterNormal.mtl

# vertex positions
v 487.186249 -23.320305 134.563141
v 487.186249 -23.320305 121.800125
v 512.712341 -23.320305 121.800125
v 512.712341 -23.320305 134.563141
v 512.712341 5.639427 134.563141
v 487.186249 5.639427 134.563141
v 512.712341 -23.320305 109.037125
v 487.186249 -23.320305 109.037125
v 487.186249 5.639427 109.037125
v 512.712341 5.639427 109.037125
v 511.731262 5.205029 134.205780
v 511.731262 5.205029 122.157486
v 511.731262 -22.885906 122.157486
v 511.731262 -22.885906 134.205780
v 511.731262 -22.880804 121.443237
v 511.731262 5.199923 121.443237
v 511.731262 5.199923 109.394028
v 511.731262 -22.880804 109.394028
v 487.186249 5.639427 121.800125
v 487.186249 5.199923 121.443237
v 487.186249 -22.880804 121.443237
v 487.186249 5.199923 109.394028
v 487.186249 -22.880804 109.394028
v 487.186249 5.205029 122.157486
v 487.186249 5.205029 134.205780
v 487.186249 -22.885906 122.157486
v 487.186249 -22.885906 134.205780
v 512.712219 -23.320305 134.563141
v 512.712219 -23.320305 109.037132
v 490.576874 -23.320305 109.037132
v 490.576874 -23.320305 134.563141
v 490.576874 -28.975088 109.037132
v 490.576874 -28.975088 134.563141
v 512.712219 -28.975088 109.037132
v 512.712219 -28.975088 134.563141
v 487.186218 5.199921 109.394012
v 487.186218 5.199921 121.800110
v 487.186218 -23.320301 121.800110
v 487.186218 -23.320301 109.394012
v 487.014282 5.199921 121.800110
v 486.842346 5.028009 121.628220
v 486.842346 -23.148392 121.628220
v 487.014282 -23.320301 121.800110
v 487.014282 5.199921 109.394012
v 486.842346 5.028009 109.565933
v 487.014282 -23.320301 109.394012
v 486.842346 -23.148392 109.565933
v 487.186218 5.199921 134.205780
v 487.186218 -23.320301 134.205780
v 487.186218 -23.320301 121.799683
v 487.186218 5.199921 121.799683
v 486.842346 -23.148392 134.033890
v 487.014282 -23.320301 134.205780
v 487.014282 5.199921 134.205780
v 486.842346 5.028009 134.033890
v 487.014282 5.199921 121.799683
v 486.842346 5.028009 121.971588
v 487.014282 -23.320301 121.799683
v 486.842346 -23.148392 121.971588
v 486.713562 -9.734543 119.586273
v 486.633972 -9.734543 119.695816
v 486.445984 -9.633829 119.634735
v 486.597351 -9.633829 119.426353
v 486.633972 -9.734543 119.831245
v 486.445984 -9.633829 119.892319
v 486.713562 -9.734543 119.940788
v 486.597351 -9.633829 120.100700
v 486.842346 -9.734543 119.982635
v 486.842346 -9.633829 120.180298
v 486.842346 -9.734543 119.544426
v 486.842346 -9.633829 119.346756
v 486.296753 -9.476964 119.586273
v 486.505127 -9.476964 119.299454
v 486.296753 -9.476964 119.940788
v 486.505127 -9.476964 120.227608
v 486.842346 -9.476964 120.337166
v 486.842346 -9.476964 119.189888
v 486.200989 -9.279302 119.555138
v 486.445984 -9.279302 119.217964
v 486.200989 -9.279302 119.971916
v 486.445984 -9.279302 120.309090
v 486.842346 -9.279302 120.437881
v 486.842346 -9.279302 119.089180
v 486.167999 -9.060191 119.544426
v 486.425537 -9.060191 119.189888
v 486.167999 -9.060191 119.982635
v 486.425537 -9.060191 120.337166
v 486.842346 -9.060191 120.472580
v 486.842346 -9.060191 119.054482
v 486.200989 -8.841081 119.555138
v 486.445984 -8.841081 119.217964
v 486.200989 -8.841081 119.971916
v 486.445984 -8.841081 120.309090
v 486.842346 -8.841081 120.437881
v 486.842346 -8.841081 119.089180
v 486.296753 -8.643418 119.586273
v 486.505127 -8.643418 119.299454
v 486.296753 -8.643418 119.940788
v 486.505127 -8.643418 120.227608
v 486.842346 -8.643418 120.337166
v 486.842346 -8.643418 119.189888
v 486.445984 -8.486552 119.634735
v 486.597351 -8.486552 119.426353
v 486.445984 -8.486552 119.892319
v 486.597351 -8.486552 120.100700
v 486.842346 -8.486552 120.180298
v 486.842346 -8.486552 119.346756
v 486.633972 -8.385839 119.695816
v 486.713562 -8.385839 119.586273
v 486.633972 -8.385839 119.831245
v 486.713562 -8.385839 119.940788
v 486.842346 -8.385839 119.982635
v 486.842346 -8.385839 119.544426
v 486.842346 -9.769247 119.763527
v 486.842346 -8.351135 119.763527
v 486.713562 -9.734543 123.659485
v 486.633972 -9.734543 123.769043
v 486.445984 -9.633829 123.707962
v 486.597351 -9.633829 123.499573
v 486.633972 -9.734543 123.904434
v 486.445984 -9.633829 123.965530
v 486.713562 -9.734543 124.014008
v 486.597351 -9.633829 124.173920
v 486.842346 -9.734543 124.055862
v 486.842346 -9.633829 124.253510
v 486.842346 -9.734543 123.617630
v 486.842346 -9.633829 123.419968
v 486.296753 -9.476964 123.659485
v 486.505127 -9.476964 123.372665
v 486.296753 -9.476964 124.014008
v 486.505127 -9.476964 124.300812
v 486.842346 -9.476964 124.410385
v 486.842346 -9.476964 123.263107
v 486.200989 -9.279302 123.628357
v 486.445984 -9.279302 123.291183
v 486.200989 -9.279302 124.045135
v 486.445984 -9.279302 124.382309
v 486.842346 -9.279302 124.511093
v 486.842346 -9.279302 123.162384
v 486.167999 -9.060191 123.617630
v 486.425537 -9.060191 123.263107
v 486.167999 -9.060191 124.055862
v 486.425537 -9.060191 124.410385
v 486.842346 -9.060191 124.545792
v 486.842346 -9.060191 123.127686
v 486.200989 -8.841081 123.628357
v 486.445984 -8.841081 123.291183
v 486.200989 -8.841081 124.045135
v 486.445984 -8.841081 124.382309
v 486.842346 -8.841081 124.511093
v 486.842346 -8.841081 123.162384
v 486.296753 -8.643418 123.659485
v 486.505127 -8.643418 123.372665
v 486.296753 -8.643418 124.014008
v 486.505127 -8.643418 124.300812
v 486.842346 -8.643418 124.410385
v 486.842346 -8.643418 123.263107
v 486.445984 -8.486552 123.707962
v 486.597351 -8.486552 123.499573
v 486.445984 -8.486552 123.965530
v 486.597351 -8.486552 124.173920
v 486.842346 -8.486552 124.253510
v 486.842346 -8.486552 123.419968
v 486.633972 -8.385839 123.769043
v 486.713562 -8.385839 123.659485
v 486.633972 -8.385839 123.904434
v 486.713562 -8.385839 124.014008
v 486.842346 -8.385839 124.055862
v 486.842346 -8.385839 123.617630
v 486.842346 -9.769247 123.836746
v 486.842346 -8.351135 123.836746

# UV coordinates
vt 0.301649 0.991334
vt 0.301649 0.902957
vt 0.478404 0.902957
vt 0.478404 0.991335
vt 0.491339 0.789544
vt 0.668094 0.789544
vt 0.668094 0.990075
vt 0.491340 0.990075
vt 0.814080 0.576447
vt 0.990835 0.576447
vt 0.990835 0.776978
vt 0.814080 0.776978
vt 0.266654 0.612845
vt 0.183226 0.612845
vt 0.183226 0.418330
vt 0.266654 0.418330
vt 0.707169 0.371009
vt 0.707169 0.565453
vt 0.623734 0.565453
vt 0.623734 0.371009
vt 0.301649 0.814580
vt 0.478404 0.814580
vt 0.905100 0.789392
vt 0.905100 0.989923
vt 0.902629 0.986880
vt 0.902629 0.792435
vt 0.816723 0.989923
vt 0.819194 0.986880
vt 0.816723 0.789392
vt 0.819195 0.792435
vt 0.877130 0.371009
vt 0.877130 0.565453
vt 0.707169 0.735415
vt 0.623734 0.735415
vt 0.453773 0.565453
vt 0.453773 0.371009
vt 0.623734 0.201047
vt 0.707169 0.201047
vt 0.993477 0.989923
vt 0.907575 0.986915
vt 0.991003 0.986915
vt 0.907575 0.792400
vt 0.993478 0.789392
vt 0.991003 0.792400
vt 0.266654 0.782806
vt 0.183226 0.782806
vt 0.013265 0.612845
vt 0.013264 0.418330
vt 0.183226 0.248368
vt 0.266654 0.248368
vt 0.436616 0.418329
vt 0.436616 0.612845
vt 0.941483 0.247367
vt 0.764729 0.247367
vt 0.764729 0.094091
vt 0.941483 0.094091
vt 0.764729 0.054935
vt 0.941483 0.054935
vt 0.725573 0.247367
vt 0.725573 0.094091
vt 0.980640 0.094091
vt 0.980640 0.247367
vt 0.297369 0.346172
vt 0.297369 0.260266
vt 0.494857 0.260266
vt 0.494857 0.346171
vt 0.908280 0.565924
vt 0.906596 0.564734
vt 0.906540 0.369623
vt 0.908223 0.368432
vt 0.778620 0.970142
vt 0.779810 0.971825
vt 0.693905 0.971825
vt 0.695095 0.970141
vt 0.939566 0.559548
vt 0.937883 0.560739
vt 0.937883 0.363252
vt 0.939567 0.364442
vt 0.785202 0.887943
vt 0.784012 0.889627
vt 0.700486 0.889627
vt 0.699296 0.887943
vt 0.779810 0.973016
vt 0.693905 0.973015
vt 0.190138 0.798121
vt 0.190138 0.993228
vt 0.106613 0.993228
vt 0.106613 0.798121
vt 0.785202 0.886753
vt 0.699296 0.886753
vt 0.936692 0.560739
vt 0.936693 0.363252
vt 0.909471 0.565924
vt 0.909414 0.368432
vt 0.203946 0.994963
vt 0.203812 0.797475
vt 0.289718 0.797417
vt 0.289852 0.994905
vt 0.765318 0.334675
vt 0.764138 0.332985
vt 0.961622 0.334175
vt 0.960421 0.335851
vt 0.889316 0.288380
vt 0.890482 0.290079
vt 0.804585 0.288889
vt 0.805799 0.287222
vt 0.888351 0.364534
vt 0.890021 0.365497
vt 0.888350 0.558507
vt 0.886208 0.559831
vt 0.156793 0.189980
vt 0.155547 0.191622
vt 0.072070 0.188790
vt 0.070937 0.187067
vt 0.890466 0.291270
vt 0.804568 0.290079
vt 0.008462 0.798121
vt 0.091987 0.798121
vt 0.091987 0.993228
vt 0.008462 0.993228
vt 0.156834 0.188790
vt 0.070977 0.185877
vt 0.887460 0.365030
vt 0.885084 0.560012
vt 0.764145 0.331794
vt 0.961629 0.332985
vt 0.106464 0.290162
vt 0.107445 0.290510
vt 0.107043 0.291870
vt 0.105330 0.291413
vt 0.108539 0.290516
vt 0.108860 0.291904
vt 0.109539 0.290169
vt 0.110625 0.291518
vt 0.110199 0.289437
vt 0.112145 0.290563
vt 0.105833 0.289467
vt 0.103952 0.290400
vt 0.106749 0.293208
vt 0.104514 0.292793
vt 0.109038 0.293263
vt 0.111327 0.292983
vt 0.113582 0.292214
vt 0.102433 0.291812
vt 0.106554 0.294553
vt 0.103997 0.294273
vt 0.109114 0.294618
vt 0.111704 0.294514
vt 0.114413 0.294178
vt 0.101403 0.293601
vt 0.106452 0.295907
vt 0.103775 0.295813
vt 0.109101 0.295976
vt 0.111778 0.296071
vt 0.114599 0.296262
vt 0.100954 0.295621
vt 0.106440 0.297265
vt 0.103849 0.297370
vt 0.109000 0.297331
vt 0.111557 0.297610
vt 0.114151 0.298283
vt 0.101141 0.297706
vt 0.106516 0.298620
vt 0.104226 0.298900
vt 0.108805 0.298675
vt 0.111039 0.299090
vt 0.113121 0.300071
vt 0.101972 0.299670
vt 0.106694 0.299979
vt 0.104929 0.300366
vt 0.108510 0.300013
vt 0.110223 0.300470
vt 0.111601 0.301484
vt 0.103409 0.301320
vt 0.107015 0.301368
vt 0.106015 0.301714
vt 0.108109 0.301374
vt 0.109090 0.301722
vt 0.109721 0.302417
vt 0.105355 0.302446
vt 0.107971 0.289019
vt 0.107583 0.302864
vt 0.558558 0.301550
vt 0.559598 0.301606
vt 0.559597 0.303025
vt 0.557825 0.303070
vt 0.560649 0.301303
vt 0.561349 0.302545
vt 0.561511 0.300689
vt 0.562934 0.301675
vt 0.561938 0.299800
vt 0.564121 0.300331
vt 0.557757 0.301061
vt 0.556216 0.302486
vt 0.559692 0.304391
vt 0.557431 0.304624
vt 0.561903 0.303798
vt 0.564021 0.302883
vt 0.565967 0.301508
vt 0.555158 0.304270
vt 0.559885 0.305736
vt 0.557353 0.306190
vt 0.562359 0.305077
vt 0.564815 0.304245
vt 0.567318 0.303158
vt 0.554674 0.306277
vt 0.560169 0.307064
vt 0.557575 0.307730
vt 0.562730 0.306383
vt 0.565325 0.305718
vt 0.568085 0.305105
vt 0.554815 0.308342
vt 0.560541 0.308371
vt 0.558085 0.309202
vt 0.563015 0.307711
vt 0.565547 0.307258
vt 0.568226 0.307170
vt 0.555582 0.310289
vt 0.560997 0.309649
vt 0.558879 0.310564
vt 0.563208 0.309056
vt 0.565468 0.308823
vt 0.567742 0.309177
vt 0.556933 0.311939
vt 0.561551 0.310903
vt 0.559966 0.311772
vt 0.563303 0.310423
vt 0.565075 0.310377
vt 0.566683 0.310961
vt 0.558778 0.313116
vt 0.562251 0.312144
vt 0.561389 0.312758
vt 0.563301 0.311841
vt 0.564341 0.311898
vt 0.565143 0.312386
vt 0.560962 0.313647
vt 0.559682 0.300027
vt 0.563218 0.313420

# vertex normals
vn 0.000000 -1.000000 0.000000
vn 0.000000 0.000000 1.000000
vn 0.000000 0.000000 -1.000000
vn -1.000000 0.000000 0.000000
vn -1.000000 -0.000034 0.000000
vn -1.000000 0.000020 0.000000
vn -1.000000 0.000016 0.000000
vn -1.000000 -0.000039 0.000000
vn -1.000000 -0.000048 0.000000
vn 0.000000 1.000000 0.000000
vn -1.000000 0.000021 0.000000
vn -1.000000 0.000017 0.000000
vn -1.000000 -0.000017 0.000000
vn -1.000000 -0.000021 0.000000
vn 1.000000 0.000000 0.000000
vn -0.352484 0.000000 0.935818
vn -0.999777 0.008374 0.019401
vn -0.999777 -0.008374 0.019401
vn -0.350997 0.936377 0.000000
vn -0.350980 0.936383 0.000000
vn -0.999777 0.008375 -0.019401
vn -0.352540 0.000000 -0.935797
vn -0.999777 -0.008375 -0.019401
vn -0.350997 -0.936377 0.000000
vn -0.350980 -0.936383 0.000000
vn -0.999777 -0.008373 0.019401
vn -0.352483 0.000000 0.935818
vn -0.999777 0.008373 0.019401
vn -0.351029 0.936365 0.000000
vn -0.351020 0.936368 0.000000
vn -0.999777 0.008373 -0.019401
vn -0.352533 0.000000 -0.935799
vn -0.999777 -0.008373 -0.019401
vn -0.351029 -0.936365 0.000000
vn -0.351020 -0.936368 0.000000
vn -0.235368 -0.916332 -0.323941
vn -0.380843 -0.916325 -0.123721
vn -0.602676 -0.773596 -0.195783
vn -0.372466 -0.773584 -0.512676
vn -0.380853 -0.916321 0.123723
vn -0.602666 -0.773603 0.195785
vn -0.235342 -0.916341 0.323934
vn -0.372455 -0.773594 0.512669
vn -0.128994 -0.908690 0.397042
vn -0.201659 -0.757652 0.620724
vn -0.129030 -0.908662 -0.397095
vn -0.201668 -0.757644 -0.620730
vn -0.789273 -0.557941 -0.256417
vn -0.487817 -0.557923 -0.671384
vn -0.789244 -0.557983 0.256416
vn -0.487786 -0.557967 0.671370
vn -0.260327 -0.538706 0.801265
vn -0.260341 -0.538697 -0.801266
vn -0.909639 -0.291886 -0.295566
vn -0.562152 -0.291900 -0.773808
vn -0.909628 -0.291933 0.295553
vn -0.562140 -0.291942 0.773801
vn -0.296759 -0.278780 0.913354
vn -0.296747 -0.278790 -0.913355
vn -0.951063 0.000000 -0.308997
vn -0.587805 -0.000010 -0.809002
vn -0.951060 0.000000 0.309005
vn -0.587810 -0.000001 0.808999
vn -0.309014 -0.000001 0.951057
vn -0.308978 -0.000019 -0.951069
vn -0.909639 0.291886 -0.295565
vn -0.562152 0.291890 -0.773813
vn -0.909633 0.291915 0.295557
vn -0.562147 0.291924 0.773803
vn -0.296759 0.278781 0.913354
vn -0.296749 0.278769 -0.913361
vn -0.789265 0.557946 -0.256430
vn -0.487828 0.557913 -0.671384
vn -0.789249 0.557972 0.256423
vn -0.487800 0.557946 0.671378
vn -0.260326 0.538708 0.801264
vn -0.260341 0.538696 -0.801267
vn -0.602661 0.773602 -0.195805
vn -0.372487 0.773567 -0.512687
vn -0.602641 0.773621 0.195789
vn -0.372461 0.773589 0.512672
vn -0.201659 0.757648 0.620728
vn -0.201667 0.757643 -0.620732
vn -0.380775 0.916356 -0.123700
vn -0.235329 0.916347 -0.323926
vn -0.380814 0.916336 0.123731
vn -0.235342 0.916341 0.323935
vn -0.128994 0.908690 0.397044
vn -0.129030 0.908661 -0.397097
vn -0.107188 -0.994239 0.000000
vn -0.107182 0.994239 0.000000
vn -0.235361 -0.916341 -0.323920
vn -0.380834 -0.916328 -0.123723
vn -0.602668 -0.773600 -0.195792
vn -0.372474 -0.773592 -0.512659
vn -0.380869 -0.916313 0.123730
vn -0.602722 -0.773552 0.195816
vn -0.235397 -0.916315 0.323969
vn -0.372491 -0.773554 0.512704
vn -0.129032 -0.908659 0.397101
vn -0.201654 -0.757684 0.620686
vn -0.129031 -0.908685 -0.397043
vn -0.201687 -0.757660 -0.620704
vn -0.789254 -0.557965 -0.256422
vn -0.487807 -0.557944 -0.671374
vn -0.789264 -0.557949 0.256429
vn -0.487798 -0.557945 0.671379
vn -0.260322 -0.538729 0.801251
vn -0.260351 -0.538699 -0.801262
vn -0.909639 -0.291899 -0.295554
vn -0.562154 -0.291920 -0.773800
vn -0.909630 -0.291932 0.295550
vn -0.562133 -0.291929 0.773812
vn -0.296750 -0.278764 0.913362
vn -0.296776 -0.278809 -0.913340
vn -0.951057 0.000000 -0.309014
vn -0.587819 -0.000010 -0.808993
vn -0.951058 0.000000 0.309012
vn -0.587803 0.000010 0.809004
vn -0.308996 0.000019 0.951063
vn -0.309033 -0.000019 -0.951051
vn -0.909644 0.291881 -0.295557
vn -0.562162 0.291890 -0.773805
vn -0.909630 0.291932 0.295549
vn -0.562133 0.291939 0.773808
vn -0.296748 0.278784 0.913357
vn -0.296778 0.278785 -0.913346
vn -0.789264 0.557946 -0.256433
vn -0.487815 0.557941 -0.671371
vn -0.789256 0.557962 0.256424
vn -0.487795 0.557955 0.671374
vn -0.260324 0.538716 0.801259
vn -0.260345 0.538727 -0.801245
vn -0.602671 0.773597 -0.195797
vn -0.372465 0.773608 -0.512641
vn -0.602707 0.773566 0.195805
vn -0.372482 0.773560 0.512701
vn -0.201662 0.757658 0.620715
vn -0.201673 0.757694 -0.620667
vn -0.380834 0.916329 -0.123718
vn -0.235357 0.916342 -0.323920
vn -0.380859 0.916320 0.123713
vn -0.235383 0.916322 0.323958
vn -0.129030 0.908661 0.397098
vn -0.129031 0.908685 -0.397043
vn -0.107183 -0.994239 0.000009
vn -0.107174 0.994240 -0.000001

# Mesh
g Counter KitchenCounter
usemtl initialShadingGroup
f 3/3/1 4/4/1 1/1/1 2/2/1
f 4/6/2 5/7/2 6/8/2 1/5/2
f 10/12/3 7/9/3 8/10/3 9/11/3
f 11/13/4 12/14/4 13/15/4 14/16/4
f 16/18/4 17/19/4 18/20/4 15/17/4
f 7/22/1 3/3/1 2/2/1 8/21/1
f 19/24/6 20/25/7 21/26/8 2/23/5
f 19/24/6 9/27/6 22/28/7 20/25/7
f 22/28/7 9/27/6 8/29/9 23/30/8
f 21/26/8 23/30/8 8/29/9 2/23/5
f 16/18/3 15/17/3 21/31/3 20/32/3
f 17/19/1 16/18/1 20/33/1 22/34/1
f 18/20/2 17/19/2 22/35/2 23/36/2
f 15/17/10 18/20/10 23/37/10 21/38/10
f 6/39/11 19/24/6 24/40/12 25/41/12
f 24/40/12 19/24/6 2/23/5 26/42/13
f 27/44/13 26/42/13 2/23/5 1/43/14
f 6/39/11 25/41/12 27/44/13 1/43/14
f 12/14/1 11/13/1 25/45/1 24/46/1
f 13/15/2 12/14/2 24/47/2 26/48/2
f 14/16/10 13/15/10 26/49/10 27/50/10
f 11/13/3 14/16/3 27/51/3 25/52/3

# Mesh
g KitchenCounter Base
usemtl initialShadingGroup
f 28/53/10 29/54/10 30/55/10 31/56/10
f 31/56/4 30/55/4 32/57/4 33/58/4
f 29/54/3 34/59/3 32/60/3 30/55/3
f 35/62/2 28/53/2 31/56/2 33/61/2

# Mesh
g KitchenCounter Door
usemtl initialShadingGroup
f 36/63/15 37/64/15 38/65/15 39/66/15
f 43/70/16 40/67/16 41/68/17 42/69/18
f 40/72/19 44/73/20 45/74/21 41/71/17
f 44/76/22 46/77/22 47/78/23 45/75/21
f 46/82/25 43/79/24 42/80/18 47/81/23
f 37/83/10 36/84/10 44/73/20 40/72/19
f 41/86/17 45/87/21 47/88/23 42/85/18
f 39/90/1 38/89/1 43/79/24 46/82/25
f 36/91/3 39/92/3 46/77/22 44/76/22
f 38/94/2 37/93/2 40/67/16 43/70/16

# Mesh
g KitchenCounter Door1
usemtl initialShadingGroup
f 51/98/15 48/95/15 49/96/15 50/97/15
f 53/100/27 54/101/27 55/102/28 52/99/26
f 54/104/29 56/105/30 57/106/31 55/103/28
f 56/110/32 58/107/32 59/108/33 57/109/31
f 58/114/35 53/111/34 52/112/26 59/113/33
f 48/115/10 51/116/10 56/105/30 54/104/29
f 55/119/28 57/120/31 59/117/33 52/118/26
f 50/122/1 49/121/1 53/111/34 58/114/35
f 51/124/3 50/123/3 58/107/32 56/110/32
f 49/125/2 48/126/2 54/101/27 53/100/27

# Mesh
g KitchenCounter Handle
usemtl initialShadingGroup
f 60/127/36 61/128/37 62/129/38 63/130/39
f 61/128/37 64/131/40 65/132/41 62/129/38
f 64/131/40 66/133/42 67/134/43 65/132/41
f 68/135/44 69/136/45 67/134/43 66/133/42
f 71/138/47 70/137/46 60/127/36 63/130/39
f 73/140/49 63/130/39 62/129/38 72/139/48
f 62/129/38 65/132/41 74/141/50 72/139/48
f 67/134/43 75/142/51 74/141/50 65/132/41
f 69/136/45 76/143/52 75/142/51 67/134/43
f 77/144/53 71/138/47 63/130/39 73/140/49
f 79/146/55 73/140/49 72/139/48 78/145/54
f 72/139/48 74/141/50 80/147/56 78/145/54
f 75/142/51 81/148/57 80/147/56 74/141/50
f 76/143/52 82/149/58 81/148/57 75/142/51
f 83/150/59 77/144/53 73/140/49 79/146/55
f 85/152/61 79/146/55 78/145/54 84/151/60
f 78/145/54 80/147/56 86/153/62 84/151/60
f 81/148/57 87/154/63 86/153/62 80/147/56
f 82/149/58 88/155/64 87/154/63 81/148/57
f 89/156/65 83/150/59 79/146/55 85/152/61
f 91/158/67 85/152/61 84/151/60 90/157/66
f 92/159/68 90/157/66 84/151/60 86/153/62
f 87/154/63 93/160/69 92/159/68 86/153/62
f 88/155/64 94/161/70 93/160/69 87/154/63
f 95/162/71 89/156/65 85/152/61 91/158/67
f 97/164/73 91/158/67 90/157/66 96/163/72
f 98/165/74 96/163/72 90/157/66 92/159/68
f 93/160/69 99/166/75 98/165/74 92/159/68
f 94/161/70 100/167/76 99/166/75 93/160/69
f 101/168/77 95/162/71 91/158/67 97/164/73
f 103/170/79 97/164/73 96/163/72 102/169/78
f 104/171/80 102/169/78 96/163/72 98/165/74
f 99/166/75 105/172/81 104/171/80 98/165/74
f 100/167/76 106/173/82 105/172/81 99/166/75
f 107/174/83 101/168/77 97/164/73 103/170/79
f 108/175/84 109/176/85 103/170/79 102/169/78
f 110/177/86 108/175/84 102/169/78 104/171/80
f 111/178/87 110/177/86 104/171/80 105/172/81
f 106/173/82 112/179/88 111/178/87 105/172/81
f 113/180/89 107/174/83 103/170/79 109/176/85
f 61/128/37 60/127/36 114/181/90
f 64/131/40 61/128/37 114/181/90
f 66/133/42 64/131/40 114/181/90
f 68/135/44 66/133/42 114/181/90
f 60/127/36 70/137/46 114/181/90
f 109/176/85 108/175/84 115/182/91
f 108/175/84 110/177/86 115/182/91
f 110/177/86 111/178/87 115/182/91
f 111/178/87 112/179/88 115/182/91
f 113/180/89 109/176/85 115/182/91

# Mesh
g KitchenCounter Handle1
usemtl initialShadingGroup
f 116/183/92 117/184/93 118/185/94 119/186/95
f 117/184/93 120/187/96 121/188/97 118/185/94
f 120/187/96 122/189/98 123/190/99 121/188/97
f 124/191/100 125/192/101 123/190/99 122/189/98
f 127/194/103 126/193/102 116/183/92 119/186/95
f 129/196/105 119/186/95 118/185/94 128/195/104
f 118/185/94 121/188/97 130/197/106 128/195/104
f 123/190/99 131/198/107 130/197/106 121/188/97
f 125/192/101 132/199/108 131/198/107 123/190/99
f 133/200/109 127/194/103 119/186/95 129/196/105
f 135/202/111 129/196/105 128/195/104 134/201/110
f 128/195/104 130/197/106 136/203/112 134/201/110
f 131/198/107 137/204/113 136/203/112 130/197/106
f 132/199/108 138/205/114 137/204/113 131/198/107
f 139/206/115 133/200/109 129/196/105 135/202/111
f 141/208/117 135/202/111 134/201/110 140/207/116
f 134/201/110 136/203/112 142/209/118 140/207/116
f 137/204/113 143/210/119 142/209/118 136/203/112
f 138/205/114 144/211/120 143/210/119 137/204/113
f 145/212/121 139/206/115 135/202/111 141/208/117
f 147/214/123 141/208/117 140/207/116 146/213/122
f 148/215/124 146/213/122 140/207/116 142/209/118
f 143/210/119 149/216/125 148/215/124 142/209/118
f 144/211/120 150/217/126 149/216/125 143/210/119
f 151/218/127 145/212/121 141/208/117 147/214/123
f 153/220/129 147/214/123 146/213/122 152/219/128
f 154/221/130 152/219/128 146/213/122 148/215/124
f 149/216/125 155/222/131 154/221/130 148/215/124
f 150/217/126 156/223/132 155/222/131 149/216/125
f 157/224/133 151/218/127 147/214/123 153/220/129
f 159/226/135 153/220/129 152/219/128 158/225/134
f 160/227/136 158/225/134 152/219/128 154/221/130
f 155/222/131 161/228/137 160/227/136 154/221/130
f 156/223/132 162/229/138 161/228/137 155/222/131
f 163/230/139 157/224/133 153/220/129 159/226/135
f 164/231/140 165/232/141 159/226/135 158/225/134
f 166/233/142 164/231/140 158/225/134 160/227/136
f 167/234/143 166/233/142 160/227/136 161/228/137
f 162/229/138 168/235/144 167/234/143 161/228/137
f 169/236/145 163/230/139 159/226/135 165/232/141
f 117/184/93 116/183/92 170/237/146
f 120/187/96 117/184/93 170/237/146
f 122/189/98 120/187/96 170/237/146
f 124/191/100 122/189/98 170/237/146
f 116/183/92 126/193/102 170/237/146
f 165/232/141 164/231/140 171/238/147
f 164/231/140 166/233/142 171/238/147
f 166/233/142 167/234/143 171/238/147
f 167/234/143 168/235/144 171/238/147
f 169/236/145 165/232/141 171/238/147
