# File produced by Open Asset Import Library (http://www.assimp.sf.net)
# (assimp v3.1.113183908)

mtllib CornerPiece.mtl

# vertex positions
v 490.137695 5.639269 199.762909
v 490.137695 -28.975243 199.762909
v 507.927979 -28.975243 199.762909
v 507.927979 5.639269 199.762909
v 490.137695 -28.975243 173.348083
v 490.137695 5.639269 173.348083
v 507.927979 5.639269 173.348083
v 507.927979 -28.975243 173.348083
v 511.923859 5.639269 195.767090
v 511.923859 -28.975243 195.767090
v 511.923859 -28.975243 177.343872
v 511.923859 5.639269 177.343872
v 486.141968 5.639269 177.343872
v 486.141968 -28.975243 177.343872
v 486.141968 -28.975243 195.767090
v 486.141968 5.639269 195.767090

# UV coordinates
vt 0.393422 0.685079
vt 0.043357 0.685079
vt 0.043357 0.505160
vt 0.393422 0.505160
vt 0.043357 0.024625
vt 0.393422 0.024625
vt 0.393422 0.204543
vt 0.043357 0.204543
vt 0.393422 0.448011
vt 0.043357 0.448011
vt 0.043357 0.261692
vt 0.393422 0.261692
vt 0.393422 0.928546
vt 0.043357 0.928546
vt 0.043357 0.742227
vt 0.393422 0.742227
vt 0.903105 0.625458
vt 0.862695 0.665868
vt 0.682777 0.665868
vt 0.642366 0.625458
vt 0.393422 0.985695
vt 0.043357 0.985695
vt 0.903105 0.439139
vt 0.642366 0.439138
vt 0.682777 0.398728
vt 0.862695 0.398728

# vertex normals
vn -0.180402 0.000000 0.983593
vn 0.180401 0.000000 0.983593
vn -0.180401 0.000000 -0.983593
vn 0.180400 0.000000 -0.983593
vn 0.984485 0.000000 0.175469
vn 0.984485 0.000000 -0.175470
vn -0.984486 0.000000 -0.175464
vn -0.984486 0.000000 0.175464
vn 0.000000 1.000000 0.000000

# Mesh
g CornerMeshLow CornerMeshes
usemtl initialShadingGroup
f 3/3/2 4/4/2 1/1/1 2/2/1
f 7/7/4 8/8/4 5/5/3 6/6/3
f 12/12/6 9/9/5 10/10/5 11/11/6
f 16/16/8 13/13/7 14/14/7 15/15/8
f 4/19/9 9/20/9 16/17/9 1/18/9
f 2/2/1 1/1/1 16/16/8 15/15/8
f 10/10/5 9/9/5 4/4/2 3/3/2
f 12/12/6 11/11/6 8/8/4 7/7/4
f 6/21/3 5/22/3 14/14/7 13/13/7
f 12/24/9 7/25/9 6/26/9 13/23/9
f 9/20/9 12/24/9 13/23/9 16/17/9
