# File produced by Open Asset Import Library (http://www.assimp.sf.net)
# (assimp v3.1.113183908)

mtllib HDD.mtl

# vertex positions
v -3.804544 0.492733 5.095956
v -3.900003 0.471952 5.155059
v -3.821634 0.472007 5.447529
v -3.732571 0.492760 5.363815
v -3.804625 0.492761 -5.095546
v -3.900003 0.472009 -5.155059
v -3.732833 0.492761 -5.363472
v -3.821634 0.472009 -5.447529
v -3.315060 0.472007 5.740000
v -3.273697 0.492760 5.626102
v -3.541668 0.492760 5.554391
v -3.607531 0.472007 5.661633
v 3.315060 0.472009 5.740000
v 3.274162 0.492761 5.626009
v 3.607531 0.472009 5.661633
v 3.542088 0.492761 5.554218
v 3.900003 0.472009 5.155059
v 3.804625 0.492761 5.095546
v 3.732833 0.492761 5.363472
v 3.821634 0.472009 5.447529
v 3.900003 0.471952 -5.155059
v 3.804544 0.492733 -5.095956
v 3.821634 0.472007 -5.447529
v 3.732671 0.492760 -5.363871
v -3.274162 0.492761 -5.626009
v -3.315060 0.472009 -5.740000
v -3.607531 0.472009 -5.661633
v -3.542088 0.492761 -5.554218
v 3.273697 0.492760 -5.626102
v 3.315060 0.472007 -5.740000
v 3.541730 0.492760 -5.554495
v 3.607531 0.472007 -5.661633
v 3.719999 0.619379 -5.389848
v -3.720329 0.619379 -5.389040
v -3.787012 0.619379 -5.140183
v 3.786847 0.619379 -5.141011
v 3.300184 0.619379 5.627009
v 3.549042 0.619379 5.560328
v -3.299245 0.619379 5.627198
v -3.548195 0.619379 5.560678
v -3.719798 0.619379 5.389733
v -3.786847 0.619379 5.141011
v -3.549042 0.619379 -5.560328
v -3.300184 0.619379 -5.627009
v 3.299245 0.619379 -5.627198
v 3.548318 0.619379 -5.560888
v 3.787012 0.619379 5.140183
v 3.720329 0.619379 5.389040
v -3.278036 -0.630189 5.648588
v -3.315060 -0.545820 5.740000
v -3.607531 -0.545820 5.661633
v -3.552714 -0.630189 5.574988
v 3.278036 -0.630189 5.648588
v 3.315060 -0.545820 5.740000
v 3.552714 -0.630189 5.574988
v 3.607531 -0.545820 5.661633
v -3.900003 -0.545820 5.155059
v -3.823653 -0.630189 5.102973
v -3.750053 -0.630189 5.377649
v -3.821634 -0.545820 5.447529
v -3.900003 -0.545820 -5.155059
v -3.823653 -0.630189 -5.102973
v -3.821634 -0.545820 -5.447529
v -3.750053 -0.630189 -5.377649
v -3.278036 -0.630189 -5.648588
v -3.315060 -0.545820 -5.740000
v 3.315060 -0.545820 -5.740000
v 3.278036 -0.630189 -5.648588
v -3.552714 -0.630189 -5.574988
v -3.607531 -0.545820 -5.661633
v 3.607531 -0.545820 -5.661633
v 3.552714 -0.630189 -5.574988
v 3.900003 -0.545820 5.155059
v 3.823653 -0.630189 5.102973
v 3.823653 -0.630189 -5.102973
v 3.900003 -0.545820 -5.155059
v 3.821634 -0.545820 5.447529
v 3.750053 -0.630189 5.377649
v 3.750053 -0.630189 -5.377649
v 3.821634 -0.545820 -5.447529

# UV coordinates
vt 0.025936 0.050360
vt 0.021937 0.047884
vt 0.025220 0.035632
vt 0.028951 0.039139
vt 0.025933 0.477282
vt 0.021937 0.479775
vt 0.028940 0.488506
vt 0.025220 0.492027
vt 0.046441 0.023381
vt 0.048173 0.028152
vt 0.036948 0.031156
vt 0.034189 0.026663
vt 0.324177 0.023381
vt 0.322464 0.028156
vt 0.336429 0.026663
vt 0.333687 0.031163
vt 0.348680 0.047884
vt 0.344685 0.050377
vt 0.341678 0.039153
vt 0.345397 0.035632
vt 0.348680 0.479775
vt 0.344681 0.477300
vt 0.345397 0.492027
vt 0.341671 0.488522
vt 0.048154 0.499503
vt 0.046441 0.504279
vt 0.034189 0.500996
vt 0.036931 0.496496
vt 0.322444 0.499507
vt 0.324177 0.504279
vt 0.333672 0.496508
vt 0.336429 0.500996
vt 0.871754 0.973657
vt 0.560078 0.973623
vt 0.557285 0.963198
vt 0.874554 0.963233
vt 0.017700 0.515597
vt 0.012396 0.516687
vt 0.012396 0.505463
vt 0.017700 0.505172
vt 0.017700 0.792047
vt 0.012396 0.790977
vt 0.012396 0.802202
vt 0.017700 0.802476
vt 0.126018 0.512333
vt 0.120714 0.513418
vt 0.120714 0.505435
vt 0.126018 0.505172
vt 0.126018 0.522752
vt 0.120713 0.524639
vt 0.120714 0.951562
vt 0.126018 0.953432
vt 0.120714 0.962785
vt 0.126018 0.963857
vt 0.120714 0.970776
vt 0.126018 0.971032
vt 0.020513 0.792056
vt 0.025817 0.790966
vt 0.025817 0.802190
vt 0.020513 0.802481
vt 0.025817 0.516676
vt 0.020513 0.515606
vt 0.025817 0.505448
vt 0.020513 0.505172
vt 0.128832 0.513425
vt 0.128832 0.505440
vt 0.134136 0.505172
vt 0.134136 0.512337
vt 0.134136 0.522761
vt 0.128831 0.524648
vt 0.134136 0.953441
vt 0.128832 0.951571
vt 0.128832 0.962794
vt 0.134136 0.963865
vt 0.134136 0.971040
vt 0.128832 0.970785
vt 0.871768 0.522128
vt 0.560100 0.522099
vt 0.567289 0.514938
vt 0.864593 0.514953
vt 0.557292 0.532518
vt 0.874561 0.532553
vt 0.567253 0.980798
vt 0.864562 0.980822
vt 0.854129 0.983599
vt 0.577678 0.983591
vt 0.577717 0.512152
vt 0.854168 0.512160
vt 0.374750 0.500449
vt 0.373200 0.504279
vt 0.360948 0.500996
vt 0.363244 0.497366
vt 0.649385 0.500449
vt 0.650936 0.504279
vt 0.660891 0.497366
vt 0.663187 0.500996
vt 0.679977 0.044601
vt 0.676443 0.046783
vt 0.676443 0.035277
vt 0.679977 0.032349
vt 0.679977 0.476493
vt 0.676443 0.474311
vt 0.679977 0.488744
vt 0.676443 0.485817
vt 0.374750 0.027210
vt 0.373200 0.023381
vt 0.650936 0.023381
vt 0.649385 0.027210
vt 0.363244 0.030293
vt 0.360948 0.026663
vt 0.663187 0.026663
vt 0.660891 0.030293
vt 0.730578 0.476493
vt 0.727044 0.474311
vt 0.727044 0.046783
vt 0.730578 0.044601
vt 0.730578 0.488744
vt 0.727044 0.485817
vt 0.727044 0.035277
vt 0.730578 0.032349
vt 0.351979 0.492027
vt 0.354978 0.489100
vt 0.669158 0.489100
vt 0.672156 0.492027
vt 0.354978 0.038559
vt 0.351979 0.035632
vt 0.672156 0.035632
vt 0.669158 0.038559
vt 0.672241 0.050066
vt 0.351895 0.050066
vt 0.116717 0.795160
vt 0.074080 0.795160
vt 0.074080 0.517424
vt 0.116717 0.517424
vt 0.071267 0.795160
vt 0.028630 0.795160
vt 0.028630 0.517424
vt 0.071267 0.517424
vt 0.773215 0.476493
vt 0.773213 0.044601
vt 0.722614 0.476493
vt 0.722611 0.044601
vt 0.722614 0.032349
vt 0.679977 0.023380
vt 0.722614 0.023380
vt 0.074080 0.807411
vt 0.116717 0.807411
vt 0.074080 0.505172
vt 0.116717 0.505172
vt 0.730578 0.497713
vt 0.773215 0.488744
vt 0.773215 0.497713
vt 0.722614 0.488744
vt 0.722614 0.497713
vt 0.679977 0.497713
vt 0.028630 0.807411
vt 0.071267 0.807411
vt 0.028630 0.505172
vt 0.071267 0.505172
vt 0.773215 0.023380
vt 0.773215 0.032349
vt 0.730578 0.023380
vt 0.672241 0.477593
vt 0.351895 0.477593

# vertex normals
vn -0.770954 0.636883 0.003287
vn -0.998066 0.061710 0.007448
vn -0.861986 0.092017 0.498511
vn -0.633066 0.699152 0.332285
vn -0.770309 0.637663 -0.003261
vn -0.998078 0.061522 -0.007448
vn -0.633603 0.698769 -0.332069
vn -0.861993 0.091969 -0.498507
vn -0.011327 0.086784 0.996163
vn -0.006197 0.635917 0.771733
vn -0.350438 0.701704 0.620327
vn -0.497726 0.096250 0.861977
vn 0.011326 0.087021 0.996142
vn 0.006224 0.634710 0.772726
vn 0.497720 0.096231 0.861983
vn 0.350742 0.701650 0.620215
vn 0.998078 0.061522 0.007448
vn 0.770309 0.637662 0.003261
vn 0.633603 0.698769 0.332069
vn 0.861993 0.091969 0.498507
vn 0.998066 0.061709 -0.007448
vn 0.770961 0.636874 -0.003281
vn 0.861992 0.091953 -0.498513
vn 0.633590 0.698669 -0.332304
vn -0.006224 0.634710 -0.772726
vn -0.011326 0.087021 -0.996142
vn -0.497720 0.096231 -0.861983
vn -0.350742 0.701650 -0.620215
vn 0.006184 0.635899 -0.771747
vn 0.011327 0.086782 -0.996163
vn 0.350521 0.701186 -0.620865
vn 0.497728 0.096189 -0.861983
vn 0.000000 1.000000 0.000000
vn 0.012947 -0.010915 0.999857
vn 0.497083 -0.069039 0.864952
vn -0.012826 -0.010906 0.999858
vn -0.495757 -0.068880 0.865725
vn -0.849176 -0.022123 0.527647
vn -0.990852 0.134570 0.010169
vn -0.990853 0.134573 -0.010067
vn -0.850106 -0.022296 -0.526139
vn -0.497083 -0.069039 -0.864952
vn -0.012947 -0.010915 -0.999857
vn 0.012797 -0.010926 -0.999858
vn 0.495488 -0.069555 -0.865826
vn 0.849305 -0.022774 -0.527411
vn 0.990854 0.134558 -0.010146
vn 0.990853 0.134572 0.010067
vn 0.850106 -0.022295 0.526139
vn 0.000000 1.000000 0.000001
vn -0.003356 -0.925322 0.379167
vn -0.011474 -0.069215 0.997536
vn -0.498711 -0.078946 0.863166
vn -0.011507 -0.999730 0.020203
vn 0.003356 -0.925322 0.379167
vn 0.011474 -0.069215 0.997536
vn 0.011507 -0.999730 0.020203
vn 0.498710 -0.078946 0.863166
vn -0.998606 -0.052232 0.007605
vn -0.013887 -0.999904 0.000067
vn -0.014716 -0.999860 0.007925
vn -0.862392 -0.075584 0.500567
vn -0.998606 -0.052232 -0.007605
vn -0.013887 -0.999904 -0.000067
vn -0.862394 -0.075583 -0.500564
vn -0.014716 -0.999860 -0.007925
vn -0.003356 -0.925322 -0.379167
vn -0.011474 -0.069215 -0.997536
vn 0.011474 -0.069215 -0.997536
vn 0.003356 -0.925322 -0.379167
vn -0.011507 -0.999730 -0.020203
vn -0.498710 -0.078946 -0.863166
vn 0.498711 -0.078946 -0.863166
vn 0.011507 -0.999730 -0.020203
vn 0.998606 -0.052232 0.007605
vn 0.013887 -0.999904 0.000067
vn 0.013887 -0.999904 -0.000067
vn 0.998606 -0.052232 -0.007605
vn 0.862394 -0.075583 0.500564
vn 0.014716 -0.999860 0.007925
vn 0.014716 -0.999860 -0.007925
vn 0.862392 -0.075584 -0.500567

# Mesh
g HDD_low
usemtl initialShadingGroup
f 4/4/4 1/1/1 2/2/2 3/3/3
f 1/1/1 5/5/5 6/6/6 2/2/2
f 5/5/5 7/7/7 8/8/8 6/6/6
f 9/9/9 10/10/10 11/11/11 12/12/12
f 13/13/13 14/14/14 10/10/10 9/9/9
f 15/15/15 16/16/16 14/14/14 13/13/13
f 20/20/20 17/17/17 18/18/18 19/19/19
f 17/17/17 21/21/21 22/22/22 18/18/18
f 21/21/21 23/23/23 24/24/24 22/22/22
f 25/25/25 26/26/26 27/27/27 28/28/28
f 29/29/29 30/30/30 26/26/26 25/25/25
f 31/31/31 32/32/32 30/30/30 29/29/29
f 12/12/12 11/11/11 4/4/4 3/3/3
f 20/20/20 19/19/19 16/16/16 15/15/15
f 28/28/28 27/27/27 8/8/8 7/7/7
f 24/24/24 23/23/23 32/32/32 31/31/31
f 36/36/33 33/33/33 34/34/33 35/35/33
f 16/39/16 38/40/35 37/37/34 14/38/14
f 14/38/14 37/37/34 39/41/36 10/42/10
f 10/42/10 39/41/36 40/44/37 11/43/11
f 11/47/11 40/48/37 41/45/38 4/46/4
f 4/46/4 41/45/38 42/49/39 1/50/1
f 42/49/39 35/52/40 5/51/5 1/50/1
f 34/54/41 7/53/7 5/51/5 35/52/40
f 43/56/42 28/55/28 7/53/7 34/54/41
f 44/57/43 25/58/25 28/59/28 43/60/42
f 45/62/44 29/61/29 25/58/25 44/57/43
f 46/64/45 31/63/31 29/61/29 45/62/44
f 33/68/46 24/65/24 31/66/31 46/67/45
f 36/69/47 22/70/22 24/65/24 33/68/46
f 18/72/18 22/70/22 36/69/47 47/71/48
f 18/72/18 47/71/48 48/74/49 19/73/19
f 19/73/19 48/74/49 38/75/35 16/76/16
f 38/80/33 48/77/33 41/78/33 40/79/33
f 47/82/33 36/36/33 35/35/33 42/81/33
f 48/77/33 47/82/33 42/81/33 41/78/33
f 46/84/33 45/85/50 44/86/50 43/83/33
f 37/88/33 38/80/33 40/79/33 39/87/33
f 33/33/33 46/84/33 43/83/33 34/34/33
f 49/89/51 50/90/52 51/91/53 52/92/54
f 53/93/55 54/94/56 50/90/52 49/89/51
f 55/95/57 56/96/58 54/94/56 53/93/55
f 59/99/61 60/100/62 57/97/59 58/98/60
f 62/102/64 58/98/60 57/97/59 61/101/63
f 63/103/65 64/104/66 62/102/64 61/101/63
f 67/107/69 68/108/70 65/105/67 66/106/68
f 66/106/68 65/105/67 69/109/71 70/110/72
f 71/111/73 72/112/74 68/108/70 67/107/69
f 76/116/78 73/113/75 74/114/76 75/115/77
f 74/114/76 73/113/75 77/117/79 78/118/80
f 76/116/78 75/115/77 79/119/81 80/120/82
f 52/92/54 51/91/53 60/121/62 59/122/61
f 78/123/80 77/124/79 56/96/58 55/95/57
f 70/110/72 69/109/71 64/125/66 63/126/65
f 80/127/82 79/128/81 72/112/74 71/111/73
f 79/128/81 75/129/77 62/130/64 64/125/66
f 54/133/56 13/134/13 9/131/9 50/132/52
f 30/137/30 67/138/69 66/135/68 26/136/26
f 21/140/21 17/139/17 73/113/75 76/116/78
f 2/142/2 6/141/6 61/101/63 57/97/59
f 60/100/62 3/143/3 2/142/2 57/97/59
f 51/144/53 12/145/12 3/143/3 60/100/62
f 50/132/52 9/131/9 12/147/12 51/146/53
f 56/148/58 15/149/15 13/134/13 54/133/56
f 77/117/79 20/151/20 15/152/15 56/150/58
f 73/113/75 17/139/17 20/151/20 77/117/79
f 8/153/8 63/103/65 61/101/63 6/141/6
f 27/154/27 70/155/72 63/103/65 8/153/8
f 26/136/26 66/135/68 70/157/72 27/156/27
f 32/158/32 71/159/73 67/138/69 30/137/30
f 23/161/23 80/120/82 71/162/73 32/160/32
f 21/140/21 76/116/78 80/120/82 23/161/23
f 78/123/80 55/95/57 52/92/54 59/122/61
f 75/129/77 74/163/76 58/164/60 62/130/64
f 74/163/76 78/123/80 59/122/61 58/164/60
f 68/108/70 72/112/74 69/109/71 65/105/67
f 55/95/57 53/93/55 49/89/51 52/92/54
f 72/112/74 79/128/81 64/125/66 69/109/71
