# author: headus 3D tools
#  using: ply2obj v1.8
#   from: uvlayout v2.09.04
mtllib WindowGlass_V1_LP_PO.mtl
# 8 vertices
v 0.9320000 0.3200000 0.0300000
v -1.0236102 0.3200000 0.0300000
v 0.9320000 2.6123720 0.0300000
v -1.0236102 2.6123720 0.0300000
v 0.9320000 0.3200000 0.0229980
v -1.0236102 0.3200000 0.0229980
v -1.0236102 2.6123720 0.0229980
v 0.9320000 2.6123720 0.0229980
# 24 normals
vn 0.000000 0.000000 -1.000000
vn 0.000000 0.000000 -1.000000
vn 0.000000 0.000000 -1.000000
vn 0.000000 0.000000 -1.000000
vn 0.000000 0.000000 1.000000
vn 0.000000 0.000000 1.000000
vn 0.000000 0.000000 1.000000
vn 0.000000 0.000000 1.000000
vn 0.000000 -1.000000 0.000000
vn 0.000000 -1.000000 0.000000
vn 0.000000 -1.000000 0.000000
vn 0.000000 -1.000000 0.000000
vn -1.000000 0.000000 0.000000
vn -1.000000 0.000000 0.000000
vn -1.000000 0.000000 0.000000
vn -1.000000 0.000000 0.000000
vn 0.000000 1.000000 0.000000
vn 0.000000 1.000000 0.000000
vn 0.000000 1.000000 0.000000
vn 0.000000 1.000000 0.000000
vn 1.000000 0.000000 0.000000
vn 1.000000 0.000000 0.000000
vn 1.000000 0.000000 0.000000
vn 1.000000 0.000000 0.000000
# 24 uv coords
vt 0.997682 0.001498
vt 0.997682 0.583566
vt 0.501123 0.583566
vt 0.501123 0.001498
vt 0.498057 0.583566
vt 0.001498 0.583566
vt 0.001498 0.001498
vt 0.498057 0.001498
vt 0.583566 0.997284
vt 0.001498 0.997284
vt 0.001498 0.995505
vt 0.583566 0.995505
vt 0.498057 0.992040
vt 0.001498 0.992040
vt 0.001498 0.990262
vt 0.498057 0.990262
vt 0.997049 0.589044
vt 0.414982 0.589044
vt 0.414982 0.587266
vt 0.997049 0.587266
vt 0.498057 0.594287
vt 0.001498 0.594287
vt 0.001498 0.592509
vt 0.498057 0.592509
# 6 polygons
usemtl initialShadingGroup
s off
g Fake_Glass_Window
f 5/5/1 6/6/2 7/7/3 8/8/4
f 1/1/5 3/2/6 4/3/7 2/4/8
f 1/13/9 2/14/10 6/15/11 5/16/12
f 2/9/13 4/10/14 7/11/15 6/12/16
f 4/21/17 3/22/18 8/23/19 7/24/20
f 3/17/21 1/18/22 5/19/23 8/20/24
# totals: 8 24 24 6
