# File produced by Open Asset Import Library (http://www.assimp.sf.net)
# (assimp v3.1.113183908)

mtllib TVStand_Final.mtl

# vertex positions
v -56.307964 -14.344081 16.677847
v -56.307964 -2.230145 16.677847
v 56.307964 -2.230145 16.677847
v 56.307964 -14.344081 16.677847
v -56.280476 -29.027462 16.678129
v -56.280476 -16.913630 16.678129
v 56.280476 -16.913630 16.678129
v 56.280476 -29.027462 16.678129
v -56.307964 -14.344081 -18.491873
v -56.307964 -2.230145 -18.491873
v 56.307964 -2.230145 -18.491873
v 56.307964 -14.344081 -18.491873
v -56.280476 -29.027462 -18.491873
v -56.280476 -16.913630 -18.491873
v 56.280476 -16.913630 -18.491873
v 56.280476 -29.027462 -18.491873
v -57.814533 -30.312263 18.345053
v -57.887943 -30.292595 18.345053
v -57.887943 -30.292595 -18.345053
v -57.814533 -30.312263 -18.345053
v -57.941685 -30.238853 18.345053
v -57.941685 -30.238853 -18.345053
v -57.961353 -30.165447 18.345053
v -57.961353 -30.165447 -18.345053
v -57.814533 -30.165447 18.491873
v -57.814533 -30.238853 18.472202
v 57.814533 -30.238853 18.472202
v 57.814533 -30.165447 18.491873
v -57.814533 -30.292595 18.418463
v 57.814533 -30.292595 18.418463
v 57.814533 -30.312263 18.345053
v -57.941685 -30.165447 18.418463
v -57.941685 -15.628830 18.418463
v -57.961353 -15.628830 18.345053
v -57.887943 -30.165447 18.472202
v -57.887943 -15.628830 18.472202
v -57.814533 -15.628830 18.491873
v 57.961353 -30.165447 18.345053
v 57.941685 -30.238853 18.345053
v 57.941685 -30.238853 -18.345053
v 57.961353 -30.165447 -18.345053
v 57.887943 -30.292595 18.345053
v 57.887943 -30.292595 -18.345053
v 57.814533 -30.312263 -18.345053
v 57.887943 -30.165447 18.472202
v 57.887943 -15.628830 18.472202
v 57.814533 -15.628830 18.491873
v 57.941685 -30.165447 18.418463
v 57.941685 -15.628830 18.418463
v 57.961353 -15.628830 18.345053
v -57.961353 -1.092218 -18.345053
v -57.941685 -1.092218 -18.418463
v -57.941685 -15.628830 -18.418463
v -57.961353 -15.628830 -18.345053
v -57.887943 -1.092218 -18.472202
v -57.887943 -15.628830 -18.472202
v -57.814533 -1.092218 -18.491873
v -57.814533 -15.628830 -18.491873
v -57.814533 -0.945398 -18.345053
v -57.887943 -0.965068 -18.345053
v -57.887943 -0.965068 18.345053
v -57.814533 -0.945398 18.345053
v -57.941685 -1.018808 -18.345053
v -57.941685 -1.018808 18.345053
v -57.961353 -1.092218 18.345053
v -57.814533 -1.018808 -18.472202
v 57.814533 -1.018808 -18.472202
v 57.814533 -1.092218 -18.491873
v -57.814533 -0.965068 -18.418463
v 57.814533 -0.965068 -18.418463
v 57.814533 -0.945398 -18.345053
v 57.961353 -1.092218 -18.345053
v 57.941685 -1.018808 -18.345053
v 57.941685 -1.018808 18.345053
v 57.961353 -1.092218 18.345053
v 57.887943 -0.965068 -18.345053
v 57.887943 -0.965068 18.345053
v 57.814533 -0.945398 18.345053
v 57.814533 -15.628830 -18.491873
v 57.887943 -15.628830 -18.472202
v 57.887943 -30.165447 -18.472202
v 57.814533 -30.165447 -18.491873
v 57.941685 -15.628830 -18.418463
v 57.941685 -30.165447 -18.418463
v 57.961353 -15.628830 -18.345053
v -57.814533 -30.292595 -18.418463
v 57.814533 -30.292595 -18.418463
v -57.814533 -30.238853 -18.472202
v 57.814533 -30.238853 -18.472202
v -57.814533 -30.165447 -18.491873
v -57.814533 -0.965068 18.418463
v 57.814533 -0.965068 18.418463
v -57.814533 -1.018808 18.472202
v 57.814533 -1.018808 18.472202
v -57.814533 -1.092218 18.491873
v 57.814533 -1.092218 18.491873
v -57.887943 -1.092218 18.472202
v -57.941685 -1.092218 18.418463
v 57.941685 -1.092218 18.418463
v 57.887943 -1.092218 18.472202
v -57.887943 -30.165447 -18.472202
v -57.941685 -30.165447 -18.418463
v 57.887943 -1.092218 -18.472202
v 57.941685 -1.092218 -18.418463
v -57.930641 -30.228882 18.408491
v -57.877972 -30.281555 18.408491
v -57.877972 -30.228882 18.461163
v 57.877972 -30.281555 18.408491
v 57.930641 -30.228882 18.408491
v 57.877972 -30.228882 18.461163
v -57.877972 -1.028781 -18.461163
v -57.930641 -1.028781 -18.408491
v -57.877972 -0.976110 -18.408491
v 57.877972 -1.028781 -18.461163
v 57.877972 -0.976110 -18.408491
v 57.930641 -1.028781 -18.408491
v -57.877972 -30.228882 -18.461163
v -57.877972 -30.281555 -18.408491
v -57.930641 -30.228882 -18.408491
v 57.877972 -30.228882 -18.461163
v 57.930641 -30.228882 -18.408491
v 57.877972 -30.281555 -18.408491
v -57.930641 -1.028781 18.408491
v -57.877972 -1.028781 18.461163
v -57.877972 -0.976110 18.408491
v 57.877972 -1.028781 18.461163
v 57.930641 -1.028781 18.408491
v 57.877972 -0.976110 18.408491

# UV coordinates
vt 0.642548 0.492948
vt 0.591018 0.492948
vt 0.591018 0.013903
vt 0.642548 0.013903
vt 0.758222 0.972655
vt 0.706692 0.972655
vt 0.706692 0.493844
vt 0.758222 0.493844
vt 0.012840 0.657789
vt 0.064370 0.657789
vt 0.064370 0.807393
vt 0.012840 0.807393
vt 0.647067 0.492948
vt 0.647067 0.013903
vt 0.796671 0.013903
vt 0.796671 0.492948
vt 0.118842 0.807393
vt 0.067312 0.807393
vt 0.067312 0.657789
vt 0.118842 0.657789
vt 0.910650 0.493844
vt 0.910650 0.972889
vt 0.761046 0.972889
vt 0.761046 0.493844
vt 0.092327 0.507286
vt 0.143857 0.507286
vt 0.143857 0.656892
vt 0.092327 0.656892
vt 0.554263 0.986097
vt 0.554263 0.507286
vt 0.703869 0.507286
vt 0.703869 0.986097
vt 0.089504 0.656892
vt 0.037974 0.656892
vt 0.037974 0.507286
vt 0.089504 0.507286
vt 0.551440 0.507286
vt 0.551440 0.986097
vt 0.401834 0.986097
vt 0.401834 0.507286
vt 0.169452 0.506077
vt 0.169452 0.506389
vt 0.013380 0.506389
vt 0.013380 0.506077
vt 0.274257 0.507827
vt 0.274486 0.507827
vt 0.274486 0.663899
vt 0.274257 0.663899
vt 0.274798 0.507827
vt 0.274798 0.663899
vt 0.174467 0.506077
vt 0.174155 0.506077
vt 0.174155 0.014216
vt 0.174467 0.014216
vt 0.169993 0.506077
vt 0.169765 0.506077
vt 0.169765 0.014216
vt 0.169993 0.014216
vt 0.169452 0.014216
vt 0.274798 0.507515
vt 0.336634 0.507515
vt 0.336634 0.507827
vt 0.274798 0.507286
vt 0.336634 0.507286
vt 0.174467 0.506389
vt 0.236303 0.506077
vt 0.236303 0.506389
vt 0.147222 0.663899
vt 0.146909 0.663899
vt 0.146909 0.507827
vt 0.147222 0.507827
vt 0.146681 0.663899
vt 0.146681 0.507827
vt 0.169452 0.013903
vt 0.013380 0.014216
vt 0.013380 0.013903
vt 0.174467 0.013903
vt 0.236303 0.013903
vt 0.236303 0.014216
vt 0.147222 0.664440
vt 0.147222 0.664211
vt 0.209057 0.664211
vt 0.209057 0.664440
vt 0.209057 0.663899
vt 0.398470 0.663899
vt 0.398470 0.664211
vt 0.336634 0.664211
vt 0.336634 0.663899
vt 0.398470 0.664440
vt 0.336634 0.664440
vt 0.302329 0.506389
vt 0.302329 0.506077
vt 0.364164 0.506077
vt 0.364164 0.506389
vt 0.586490 0.506077
vt 0.586490 0.506389
vt 0.430418 0.506389
vt 0.430418 0.506077
vt 0.399010 0.663899
vt 0.398782 0.663899
vt 0.398782 0.507827
vt 0.399010 0.507827
vt 0.398470 0.507827
vt 0.302016 0.506077
vt 0.302016 0.014216
vt 0.302329 0.014216
vt 0.587031 0.506077
vt 0.586803 0.506077
vt 0.586803 0.014216
vt 0.587031 0.014216
vt 0.586490 0.014216
vt 0.270893 0.507827
vt 0.271205 0.507827
vt 0.271205 0.663899
vt 0.270893 0.663899
vt 0.271434 0.507827
vt 0.271434 0.663899
vt 0.586490 0.013903
vt 0.430418 0.014216
vt 0.430418 0.013903
vt 0.364164 0.014216
vt 0.364164 0.013903
vt 0.426000 0.013903
vt 0.426000 0.014216
vt 0.209057 0.507286
vt 0.209057 0.507515
vt 0.147222 0.507515
vt 0.147222 0.507286
vt 0.209057 0.507827
vt 0.013068 0.506077
vt 0.013068 0.014216
vt 0.012840 0.506077
vt 0.012840 0.014216
vt 0.426312 0.506077
vt 0.426000 0.506077
vt 0.426312 0.014216
vt 0.430106 0.506077
vt 0.430106 0.014216
vt 0.429878 0.506077
vt 0.429878 0.014216
vt 0.298451 0.506077
vt 0.298139 0.506077
vt 0.298139 0.014216
vt 0.298451 0.014216
vt 0.307169 0.499669
vt 0.358699 0.499669
vt 0.307169 0.020624
vt 0.358699 0.020624
vt 0.369629 0.499552
vt 0.421159 0.499552
vt 0.369629 0.020741
vt 0.421159 0.020741
vt 0.298139 0.506389
vt 0.398470 0.507515
vt 0.398470 0.507286
vt 0.270893 0.664211
vt 0.298139 0.013903
vt 0.270893 0.664440
vt 0.426000 0.506389
vt 0.274798 0.664211
vt 0.274798 0.664440
vt 0.302329 0.013903
vt 0.270893 0.507286
vt 0.270893 0.507515
vt 0.274528 0.507557
vt 0.274304 0.507557
vt 0.169722 0.506347
vt 0.169946 0.506347
vt 0.174197 0.506347
vt 0.274528 0.507333
vt 0.169722 0.013946
vt 0.146728 0.664169
vt 0.146952 0.664169
vt 0.146952 0.664393
vt 0.174197 0.013946
vt 0.169946 0.013946
vt 0.302059 0.506347
vt 0.398739 0.664393
vt 0.398739 0.664169
vt 0.398963 0.664169
vt 0.586760 0.506347
vt 0.586984 0.506347
vt 0.302059 0.013946
vt 0.586984 0.013946
vt 0.586760 0.013946
vt 0.271387 0.507557
vt 0.271163 0.507557
vt 0.271163 0.507333
vt 0.426270 0.506347
vt 0.012887 0.506347
vt 0.013111 0.506347
vt 0.274304 0.664169
vt 0.274528 0.664169
vt 0.274528 0.664393
vt 0.426270 0.013946
vt 0.146952 0.507333
vt 0.146952 0.507557
vt 0.146728 0.507557
vt 0.013111 0.013946
vt 0.012887 0.013946
vt 0.398739 0.507557
vt 0.398739 0.507333
vt 0.298408 0.506347
vt 0.429924 0.506347
vt 0.430149 0.506347
vt 0.398963 0.507557
vt 0.298408 0.013946
vt 0.271163 0.664393
vt 0.271163 0.664169
vt 0.271387 0.664169
vt 0.430149 0.013946
vt 0.429924 0.013946

# vertex normals
vn 0.000000 0.000000 -1.000000
vn 1.000000 0.000000 0.000000
vn 0.000000 -1.000000 0.000000
vn -1.000000 0.000000 0.000000
vn 0.000000 1.000000 0.000000
vn -0.000170 -1.000000 0.000535
vn -0.500003 -0.866024 0.000401
vn -0.500003 -0.866024 -0.000401
vn -0.000170 -1.000000 -0.000535
vn -0.707112 -0.707101 0.000397
vn -0.707112 -0.707101 -0.000397
vn -0.965938 -0.258774 0.000377
vn -0.999999 -0.001346 0.000534
vn -0.999999 -0.001346 -0.000534
vn -0.965938 -0.258774 -0.000377
vn -0.000170 -0.001346 0.999999
vn -0.000127 -0.499994 0.866029
vn 0.000127 -0.499994 0.866029
vn 0.000170 -0.001346 0.999999
vn -0.000127 -0.866027 0.499997
vn 0.000127 -0.866027 0.499997
vn 0.000170 -1.000000 0.000535
vn -0.965956 -0.000949 0.258704
vn -0.965931 0.000000 0.258798
vn -1.000000 0.000000 0.000535
vn -0.707093 -0.001000 0.707120
vn -0.499982 -0.001009 0.866035
vn -0.499997 0.000000 0.866027
vn -0.707093 0.000000 0.707120
vn -0.000170 0.000000 1.000000
vn 0.999999 -0.001346 0.000534
vn 0.965938 -0.258774 0.000377
vn 0.965938 -0.258774 -0.000377
vn 0.999999 -0.001346 -0.000534
vn 0.707112 -0.707101 0.000397
vn 0.500003 -0.866024 0.000401
vn 0.500003 -0.866024 -0.000401
vn 0.707112 -0.707101 -0.000397
vn 0.000170 -1.000000 -0.000535
vn 0.499982 -0.001009 0.866035
vn 0.499997 0.000000 0.866027
vn 0.000170 0.000000 1.000000
vn 0.707093 -0.001000 0.707120
vn 0.707093 0.000000 0.707120
vn 0.965956 -0.000949 0.258704
vn 1.000000 0.000000 0.000535
vn 0.965931 0.000000 0.258798
vn -0.999999 0.001346 -0.000534
vn -0.965956 0.000949 -0.258704
vn -0.965931 0.000000 -0.258798
vn -1.000000 0.000000 -0.000535
vn -0.707093 0.001000 -0.707120
vn -0.499982 0.001009 -0.866035
vn -0.499997 0.000000 -0.866027
vn -0.707093 0.000000 -0.707120
vn -0.003833 0.030388 -0.999531
vn -0.003677 0.000000 -0.999993
vn -0.000170 1.000000 -0.000535
vn -0.500001 0.866025 -0.000401
vn -0.500001 0.866025 0.000401
vn -0.000170 1.000000 0.000535
vn -0.707113 0.707100 -0.000397
vn -0.707113 0.707100 0.000397
vn -0.965937 0.258775 -0.000377
vn -0.999999 0.001346 0.000534
vn -0.965937 0.258775 0.000377
vn -0.000127 0.499999 -0.866026
vn 0.000127 0.499999 -0.866026
vn 0.003833 0.030388 -0.999531
vn -0.000126 0.707106 -0.707108
vn 0.000126 0.707106 -0.707108
vn -0.000120 0.965929 -0.258806
vn 0.000170 1.000000 -0.000535
vn 0.000120 0.965929 -0.258806
vn 0.999999 0.001346 -0.000534
vn 0.965937 0.258775 -0.000377
vn 0.965937 0.258775 0.000377
vn 0.999999 0.001346 0.000534
vn 0.707113 0.707100 -0.000397
vn 0.500001 0.866025 -0.000401
vn 0.500001 0.866025 0.000401
vn 0.707113 0.707100 0.000397
vn 0.000170 1.000000 0.000535
vn 0.003677 0.000000 -0.999993
vn 0.499997 0.000000 -0.866027
vn 0.499982 -0.001009 -0.866035
vn 0.003853 -0.030550 -0.999526
vn 0.707093 0.000000 -0.707120
vn 0.707093 -0.001000 -0.707120
vn 0.965931 0.000000 -0.258798
vn 1.000000 0.000000 -0.000535
vn 0.965956 -0.000949 -0.258704
vn -0.000127 -0.866027 -0.499997
vn 0.000127 -0.866027 -0.499997
vn -0.000127 -0.499994 -0.866029
vn 0.000127 -0.499994 -0.866029
vn -0.003853 -0.030550 -0.999526
vn -0.000120 0.965929 0.258806
vn 0.000120 0.965929 0.258806
vn -0.000126 0.707106 0.707108
vn -0.000127 0.499999 0.866026
vn 0.000127 0.499999 0.866026
vn 0.000126 0.707106 0.707108
vn -0.000170 0.001346 0.999999
vn 0.000170 0.001346 0.999999
vn -0.499982 0.001009 0.866035
vn -0.965956 0.000949 0.258704
vn -0.707093 0.001000 0.707120
vn 0.965956 0.000949 0.258704
vn 0.499982 0.001009 0.866035
vn 0.707093 0.001000 0.707120
vn -0.499982 -0.001009 -0.866035
vn -0.965956 -0.000949 -0.258704
vn -0.707093 -0.001000 -0.707120
vn 0.499982 0.001009 -0.866035
vn 0.707093 0.001000 -0.707120
vn 0.965956 0.000949 -0.258704
vn -0.946114 -0.228948 0.229021
vn -0.707836 -0.499497 0.499470
vn -0.499471 -0.707847 0.499481
vn -0.228999 -0.946112 0.228978
vn -0.499488 -0.499464 0.707847
vn -0.228983 -0.229019 0.946106
vn 0.229001 -0.946110 0.228986
vn 0.499471 -0.707847 0.499482
vn 0.707832 -0.499498 0.499475
vn 0.946112 -0.228958 0.229019
vn 0.499479 -0.499465 0.707853
vn 0.228980 -0.229016 0.946108
vn -0.228992 0.229019 -0.946104
vn -0.499486 0.499466 -0.707847
vn -0.707824 0.499503 -0.499482
vn -0.946112 0.228954 -0.229023
vn -0.499466 0.707850 -0.499482
vn -0.229009 0.946103 -0.229006
vn 0.228984 0.229020 -0.946106
vn 0.499489 0.499465 -0.707845
vn 0.499473 0.707846 -0.499481
vn 0.229012 0.946102 -0.229009
vn 0.707827 0.499500 -0.499481
vn 0.946110 0.228964 -0.229021
vn -0.228980 -0.229016 -0.946108
vn -0.499479 -0.499465 -0.707853
vn -0.499471 -0.707847 -0.499482
vn -0.229001 -0.946110 -0.228986
vn -0.707832 -0.499498 -0.499475
vn -0.946112 -0.228958 -0.229019
vn 0.228983 -0.229019 -0.946106
vn 0.499488 -0.499464 -0.707847
vn 0.707836 -0.499497 -0.499470
vn 0.946114 -0.228948 -0.229021
vn 0.499471 -0.707847 -0.499481
vn 0.228999 -0.946112 -0.228978
vn -0.946110 0.228964 0.229021
vn -0.707827 0.499500 0.499481
vn -0.499489 0.499465 0.707845
vn -0.228984 0.229020 0.946106
vn -0.499473 0.707846 0.499481
vn -0.229012 0.946102 0.229009
vn 0.228992 0.229019 0.946104
vn 0.499486 0.499466 0.707847
vn 0.707824 0.499503 0.499482
vn 0.946112 0.228954 0.229023
vn 0.499466 0.707850 0.499482
vn 0.229009 0.946103 0.229006

# Mesh
g lowbeveled
usemtl initialShadingGroup
f 3/3/1 4/4/1 1/1/1 2/2/1
f 7/7/1 8/8/1 5/5/1 6/6/1
f 10/10/2 2/11/2 1/12/2 9/9/2
f 11/14/3 3/15/3 2/16/3 10/13/3
f 3/20/4 11/17/4 12/18/4 4/19/4
f 4/24/5 12/21/5 9/22/5 1/23/5
f 14/26/2 6/27/2 5/28/2 13/25/2
f 15/30/3 7/31/3 6/32/3 14/29/3
f 7/36/4 15/33/4 16/34/4 8/35/4
f 8/40/5 16/37/5 13/38/5 5/39/5
f 20/44/9 17/41/6 18/42/7 19/43/8
f 19/48/8 18/45/7 21/46/10 22/47/11
f 22/47/15 21/46/12 23/49/13 24/50/14
f 27/53/18 28/54/19 25/51/16 26/52/17
f 30/57/21 27/58/18 26/55/17 29/56/20
f 31/59/22 30/57/21 29/56/20 17/41/6
f 32/60/23 33/61/24 34/62/25 23/49/13
f 35/63/27 36/64/28 33/61/29 32/60/26
f 25/51/16 37/66/30 36/67/28 35/65/27
f 41/71/34 38/68/31 39/69/32 40/70/33
f 40/70/38 39/69/35 42/72/36 43/73/37
f 43/76/37 42/74/36 31/59/22 44/75/39
f 45/77/40 46/78/41 47/79/42 28/54/19
f 48/81/43 49/82/44 46/83/41 45/80/40
f 38/68/31 50/84/46 49/82/47 48/81/45
f 52/86/49 53/87/50 54/88/51 51/85/48
f 55/89/53 56/90/54 53/87/55 52/86/52
f 57/92/56 58/93/57 56/94/54 55/91/53
f 62/98/61 59/95/58 60/96/59 61/97/60
f 61/102/60 60/99/59 63/100/62 64/101/63
f 64/101/66 63/100/64 51/85/48 65/103/65
f 67/105/68 68/106/69 57/92/56 66/104/67
f 70/109/71 67/110/68 66/107/67 69/108/70
f 71/111/73 70/109/74 69/108/72 59/95/58
f 75/115/78 72/112/75 73/113/76 74/114/77
f 74/114/82 73/113/79 76/116/80 77/117/81
f 77/120/81 76/118/80 71/111/73 78/119/83
f 80/122/85 81/123/86 82/124/87 79/121/84
f 83/126/88 84/127/89 81/128/86 80/125/85
f 85/129/91 41/71/34 84/127/92 83/126/90
f 87/131/94 44/75/39 20/44/9 86/130/93
f 89/133/96 87/131/94 86/130/93 88/132/95
f 82/124/87 89/136/96 88/134/95 90/135/97
f 92/138/99 78/119/83 62/98/61 91/137/98
f 94/140/102 92/138/103 91/137/100 93/139/101
f 96/143/105 94/144/102 93/141/101 95/142/104
f 47/79/42 96/143/105 95/142/104 37/66/30
f 78/119/83 71/111/73 59/95/58 62/98/61
f 44/75/39 31/59/22 17/41/6 20/44/9
f 72/112/75 75/115/78 50/84/46 85/129/91
f 65/103/65 51/85/48 54/88/51 34/62/25
f 34/62/25 54/88/51 24/50/14 23/49/13
f 28/54/19 47/79/42 37/66/30 25/51/16
f 85/129/91 50/84/46 38/68/31 41/71/34
f 10/145/1 9/146/1 58/93/57 57/92/56
f 68/106/69 11/147/1 10/145/1 57/92/56
f 68/106/69 79/121/84 12/148/1 11/147/1
f 12/148/1 79/121/84 58/93/57 9/146/1
f 14/149/1 13/150/1 90/135/97 58/93/57
f 79/121/84 15/151/1 14/149/1 58/93/57
f 79/121/84 82/124/87 16/152/1 15/151/1
f 16/152/1 82/124/87 90/135/97 13/150/1
f 37/66/30 95/142/104 97/153/106 36/67/28
f 33/61/24 98/154/107 65/103/65 34/62/25
f 36/64/28 97/155/106 98/154/108 33/61/29
f 50/84/46 75/115/78 99/156/109 49/82/47
f 46/78/41 100/157/110 96/143/105 47/79/42
f 49/82/44 99/156/111 100/158/110 46/83/41
f 58/93/57 90/135/97 101/159/112 56/94/54
f 53/87/50 102/160/113 24/50/14 54/88/51
f 56/90/54 101/161/112 102/160/114 53/87/55
f 103/162/115 80/122/85 79/121/84 68/106/69
f 104/164/116 83/126/88 80/125/85 103/163/115
f 72/112/75 85/129/91 83/126/90 104/164/117
f 105/165/118 32/60/23 23/49/13 21/46/12
f 18/45/7 106/166/120 105/165/119 21/46/10
f 17/41/6 29/56/20 106/167/121 18/42/7
f 29/56/20 26/55/17 107/168/122 106/167/120
f 26/52/17 25/51/16 35/65/27 107/169/123
f 107/170/122 35/63/27 32/60/26 105/165/119
f 105/165/119 106/166/120 107/170/122
f 42/74/36 108/171/124 30/57/21 31/59/22
f 39/69/35 109/173/126 108/172/125 42/72/36
f 38/68/31 48/81/45 109/173/127 39/69/32
f 109/173/126 48/81/43 45/80/40 110/174/128
f 110/175/129 45/77/40 28/54/19 27/53/18
f 108/171/125 110/176/128 27/58/18 30/57/21
f 108/172/125 109/173/126 110/174/128
f 66/104/67 57/92/56 55/91/53 111/177/130
f 111/178/131 55/89/53 52/86/52 112/179/132
f 63/100/64 112/179/133 52/86/49 51/85/48
f 60/99/59 113/180/134 112/179/132 63/100/62
f 59/95/58 69/108/72 113/181/135 60/96/59
f 69/108/70 66/107/67 111/182/131 113/181/134
f 111/178/131 112/179/132 113/180/134
f 114/183/136 103/162/115 68/106/69 67/105/68
f 115/185/138 114/184/137 67/110/68 70/109/71
f 76/118/80 115/185/139 70/109/74 71/111/73
f 73/113/79 116/187/140 115/186/138 76/116/80
f 73/113/76 72/112/75 104/164/117 116/187/141
f 116/187/140 104/164/116 103/163/115 114/188/137
f 114/188/137 115/186/138 116/187/140
f 90/135/97 88/134/95 117/189/142 101/159/112
f 88/132/95 86/130/93 118/191/144 117/190/143
f 86/130/93 20/44/9 19/43/8 118/191/145
f 118/192/144 19/48/8 22/47/11 119/193/146
f 102/160/113 119/193/147 22/47/15 24/50/14
f 101/161/112 117/194/143 119/193/146 102/160/114
f 117/194/143 118/192/144 119/193/146
f 81/123/86 120/195/148 89/136/96 82/124/87
f 84/127/89 121/197/150 120/196/149 81/128/86
f 84/127/92 41/71/34 40/70/33 121/197/151
f 121/197/150 40/70/38 43/73/37 122/198/152
f 122/199/153 43/76/37 44/75/39 87/131/94
f 120/200/149 122/199/152 87/131/94 89/133/96
f 120/196/149 121/197/150 122/198/152
f 123/201/154 64/101/66 65/103/65 98/154/107
f 97/155/106 124/202/156 123/201/155 98/154/108
f 95/142/104 93/141/101 124/203/157 97/153/106
f 93/139/101 91/137/100 125/205/158 124/204/156
f 91/137/98 62/98/61 61/97/60 125/205/159
f 125/206/158 61/102/60 64/101/63 123/201/155
f 123/201/155 124/202/156 125/206/158
f 100/157/110 126/207/160 94/144/102 96/143/105
f 99/156/111 127/209/162 126/208/161 100/158/110
f 75/115/78 74/114/77 127/209/163 99/156/109
f 127/209/162 74/114/82 77/117/81 128/210/164
f 128/211/165 77/120/81 78/119/83 92/138/99
f 126/212/161 128/211/164 92/138/103 94/140/102
f 126/208/161 127/209/162 128/210/164
