# File produced by Open Asset Import Library (http://www.assimp.sf.net)
# (assimp v3.1.113183908)

mtllib Untitled.mtl

# vertex positions
v 491.122864 25.298740 153.317505
v 491.090607 25.298740 153.326141
v 491.064056 25.323572 153.285248
v 491.125427 25.323572 153.268845
v 491.069611 25.298740 153.352066
v 491.024109 25.323572 153.334595
v 491.067871 25.298740 153.385437
v 491.020813 25.323572 153.398041
v 491.086090 25.298740 153.413422
v 491.055359 25.323572 153.451309
v 491.117218 25.298740 153.425385
v 491.114716 25.323572 153.474060
v 491.042999 25.362249 153.252823
v 491.127441 25.362249 153.230225
v 490.988007 25.362249 153.320770
v 490.983490 25.362249 153.408035
v 491.031036 25.362249 153.481354
v 491.112640 25.362249 153.512695
v 491.029480 25.410984 153.232010
v 491.128784 25.410984 153.205414
v 490.964874 25.410984 153.311874
v 490.959442 25.410984 153.414459
v 491.015381 25.410984 153.500641
v 491.111359 25.410984 153.537476
v 491.024841 25.465010 153.224823
v 491.129242 25.465010 153.196854
v 490.956879 25.465010 153.308777
v 490.951172 25.465010 153.416687
v 491.010071 25.465010 153.507294
v 491.110901 25.465010 153.546036
v 491.029480 25.519033 153.232010
v 491.128784 25.519033 153.205414
v 490.964874 25.519033 153.311874
v 490.959442 25.519033 153.414459
v 491.015381 25.519033 153.500641
v 491.111359 25.519033 153.537476
v 491.042999 25.567770 153.252823
v 491.127441 25.567770 153.230225
v 490.988007 25.567770 153.320770
v 490.983490 25.567770 153.408035
v 491.031036 25.567770 153.481354
v 491.112640 25.567770 153.512695
v 491.064056 25.606447 153.285248
v 491.125427 25.606447 153.268845
v 491.024109 25.606447 153.334595
v 491.020813 25.606447 153.398041
v 491.055359 25.606447 153.451309
v 491.114716 25.606447 153.474060
v 491.090607 25.631281 153.326141
v 491.122864 25.631281 153.317505
v 491.069611 25.631281 153.352066
v 491.067871 25.631281 153.385437
v 491.086090 25.631281 153.413422
v 491.117218 25.631281 153.425385
v 491.120056 25.290180 153.371445
v 491.120056 25.639837 153.371445
v 492.796204 24.430550 154.043045
v 512.604004 24.430550 154.043045
v 512.604736 24.877953 154.044327
v 492.796204 24.877953 154.044327
v 512.604004 24.430550 176.323914
v 512.604736 24.877953 176.323914
v 492.796204 24.430677 176.323914
v 492.796204 24.877953 176.323914
v 491.122589 26.457500 177.413086
v 491.156281 26.509460 177.384476
v 491.156281 26.509460 152.976807
v 491.122589 26.491339 152.952667
v 514.276917 26.457500 177.413086
v 514.276917 26.509460 177.384476
v 514.276917 26.509460 152.976807
v 514.276917 26.491339 152.952667
v 514.276917 26.489073 177.384476
v 491.194458 24.430677 177.341415
v 491.122589 24.628767 177.413086
v 491.122589 24.628767 152.952667
v 491.194458 24.430550 153.024582
v 514.205078 24.430550 177.341415
v 514.276917 24.628767 177.413086
v 514.276917 24.628767 152.952667
v 514.205078 24.430550 153.024582
v 508.852722 34.214355 168.486298
v 508.728973 34.003304 168.549194
v 514.276917 34.003304 168.549194
v 514.276306 34.214355 168.486298
v 508.852722 34.214355 161.879135
v 508.728973 34.003304 161.816483
v 514.276306 34.214355 161.879135
v 514.276917 34.003304 161.816483
v 514.195007 50.995319 168.453583
v 508.852722 50.995319 168.453583
v 508.852722 50.995319 161.846497
v 514.195007 51.008698 161.846497

# UV coordinates
vt 0.128989 0.096847
vt 0.129219 0.097165
vt 0.128690 0.097634
vt 0.128164 0.097150
vt 0.129611 0.097354
vt 0.129381 0.097900
vt 0.130066 0.097406
vt 0.130136 0.097997
vt 0.130498 0.097308
vt 0.130888 0.097917
vt 0.130807 0.097034
vt 0.131563 0.097591
vt 0.128287 0.098170
vt 0.127468 0.097669
vt 0.129198 0.098442
vt 0.130148 0.098568
vt 0.131113 0.098558
vt 0.132086 0.098343
vt 0.128005 0.098762
vt 0.126958 0.098367
vt 0.129056 0.098992
vt 0.130118 0.099135
vt 0.131200 0.099211
vt 0.132341 0.099197
vt 0.127842 0.099393
vt 0.126679 0.099189
vt 0.128952 0.099549
vt 0.130051 0.099697
vt 0.131160 0.099860
vt 0.132323 0.100072
vt 0.127804 0.100044
vt 0.126663 0.100066
vt 0.128886 0.100112
vt 0.129948 0.100255
vt 0.130998 0.100489
vt 0.132044 0.100890
vt 0.127894 0.100695
vt 0.126922 0.100924
vt 0.128859 0.100677
vt 0.129808 0.100804
vt 0.130716 0.101080
vt 0.131534 0.101586
vt 0.128128 0.101328
vt 0.127446 0.101679
vt 0.128874 0.101249
vt 0.129626 0.101347
vt 0.130315 0.101616
vt 0.130839 0.102102
vt 0.128513 0.101944
vt 0.128224 0.102201
vt 0.128944 0.101843
vt 0.129398 0.101894
vt 0.129788 0.102084
vt 0.130016 0.102403
vt 0.129899 0.096758
vt 0.129111 0.102489
vt 0.006020 0.941556
vt 0.238497 0.941254
vt 0.238512 0.946505
vt 0.006026 0.946807
vt 0.500000 0.941254
vt 0.500000 0.946505
vt 0.732477 0.940895
vt 0.732485 0.946145
vt 0.993980 0.940489
vt 0.993974 0.945740
vt 0.954333 0.053007
vt 0.953844 0.053855
vt 0.541140 0.053855
vt 0.540735 0.053007
vt 0.184047 0.135967
vt 0.183584 0.135152
vt 0.501685 0.135152
vt 0.501685 0.135967
vt 0.077653 0.040749
vt 0.078237 0.040749
vt 0.078228 0.488308
vt 0.077644 0.488308
vt 0.501820 0.135721
vt 0.568525 0.855996
vt 0.568327 0.858552
vt 0.273003 0.858552
vt 0.272615 0.855996
vt 0.845348 0.855996
vt 0.845782 0.858552
vt 0.006100 0.858552
vt 0.006020 0.855996
vt 0.050610 0.818142
vt 0.050610 0.548073
vt 0.062564 0.566865
vt 0.062564 0.799342
vt 0.336010 0.548073
vt 0.324068 0.566865
vt 0.336010 0.818142
vt 0.324067 0.799342
vt 0.841964 0.880181
vt 0.566126 0.880181
vt 0.276780 0.880181
vt 0.014281 0.880181
vt 0.562402 0.569582
vt 0.562415 0.566953
vt 0.629190 0.566953
vt 0.628417 0.569582
vt 0.479780 0.569582
vt 0.479799 0.566953
vt 0.413723 0.569582
vt 0.412973 0.566953
vt 0.617966 0.765724
vt 0.557674 0.765724
vt 0.483571 0.765724
vt 0.423208 0.765724
vt 0.501685 0.295130
vt 0.425466 0.295130
vt 0.302395 0.380995
vt 0.302393 0.488308
vt 0.803116 0.376877
vt 0.689274 0.376877
vt 0.694420 0.453718
vt 0.926906 0.453718
vt 0.926906 0.715207
vt 0.694420 0.715206

# vertex normals
vn -0.107852 -0.908667 -0.403351
vn -0.217945 -0.916332 -0.335910
vn -0.345244 -0.773475 -0.531547
vn -0.168656 -0.757767 -0.630352
vn -0.373880 -0.916299 -0.143560
vn -0.591986 -0.773264 -0.227188
vn -0.386792 -0.916327 0.103615
vn -0.612359 -0.773380 0.164014
vn -0.251737 -0.916439 0.311076
vn -0.398762 -0.773579 0.492508
vn -0.149493 -0.908839 0.389441
vn -0.233783 -0.757754 0.609224
vn -0.452026 -0.557762 -0.696114
vn -0.217890 -0.538616 -0.813890
vn -0.774848 -0.557858 -0.297328
vn -0.801486 -0.558137 0.214714
vn -0.522229 -0.558022 0.644894
vn -0.301865 -0.538667 0.786585
vn -0.520935 -0.291924 -0.802126
vn -0.248511 -0.278750 -0.927653
vn -0.892910 -0.291900 -0.342791
vn -0.923889 -0.291920 0.247411
vn -0.602030 -0.291906 0.743203
vn -0.344270 -0.278748 0.896537
vn -0.544560 0.000000 -0.838722
vn -0.258846 0.000001 -0.965919
vn -0.933555 -0.000001 -0.358434
vn -0.965920 -0.000001 0.258840
vn -0.629183 -0.000001 0.777257
vn -0.358598 -0.000002 0.933492
vn -0.520938 0.291890 -0.802137
vn -0.248508 0.278676 -0.927676
vn -0.892915 0.291902 -0.342776
vn -0.923892 0.291921 0.247399
vn -0.602032 0.291908 0.743201
vn -0.344264 0.278744 0.896540
vn -0.452041 0.557730 -0.696129
vn -0.217906 0.538563 -0.813920
vn -0.774861 0.557853 -0.297306
vn -0.801470 0.558154 0.214733
vn -0.522224 0.558054 0.644870
vn -0.301860 0.538692 0.786569
vn -0.345256 0.773475 -0.531540
vn -0.168710 0.757765 -0.630341
vn -0.591983 0.773275 -0.227159
vn -0.612377 0.773348 0.164098
vn -0.398819 0.773528 0.492543
vn -0.233790 0.757722 0.609262
vn -0.218041 0.916293 -0.335955
vn -0.107957 0.908619 -0.403431
vn -0.373944 0.916271 -0.143570
vn -0.386945 0.916252 0.103712
vn -0.251860 0.916370 0.311180
vn -0.149485 0.908812 0.389507
vn -0.106986 -0.994245 -0.005644
vn -0.106982 0.994246 -0.005538
vn 0.113612 -0.988357 0.101208
vn 0.000000 -0.994786 0.101985
vn 0.000000 -0.002846 0.999996
vn -0.999999 0.001549 0.000000
vn 0.000000 0.000000 -1.000000
vn 0.114483 -0.993425 0.000004
vn 1.000000 -0.000081 0.000000
vn -0.727787 0.016539 0.685604
vn -0.323301 0.933250 0.156592
vn -0.323619 0.933725 -0.153065
vn -0.725353 0.012538 -0.688263
vn 0.000000 0.015200 0.999884
vn 0.000000 0.760736 0.649062
vn 0.000000 0.762945 -0.646464
vn 0.000000 0.012825 -0.999918
vn 1.000000 0.000000 0.000000
vn -0.159021 -0.975724 0.150580
vn -0.728574 -0.040103 0.683792
vn -0.722750 -0.039845 -0.689960
vn -0.159048 -0.975725 -0.150548
vn -0.000001 -0.986814 0.161858
vn 0.000000 -0.028463 0.999595
vn 0.000000 -0.028091 -0.999605
vn 0.000000 -0.986816 -0.161849
vn -0.000002 -1.000000 0.000000
vn -0.774155 0.010959 0.632901
vn -0.249080 0.923487 0.291772
vn 0.000000 0.760072 0.649839
vn 0.000000 0.005712 0.999984
vn -0.774806 0.008508 -0.632142
vn -0.249057 0.923515 -0.291701
vn 0.000000 0.001853 -0.999998
vn 0.000000 0.760226 -0.649659
vn 0.000000 0.001949 0.999998
vn 0.000000 -0.001946 -0.999998
vn -1.000000 -0.000001 0.000000
vn 0.000000 -1.000000 0.000000

# Mesh
g button7 KitchenFanLow group4
usemtl initialShadingGroup
f 4/4/4 1/1/1 2/2/2 3/3/3
f 2/2/2 5/5/5 6/6/6 3/3/3
f 5/5/5 7/7/7 8/8/8 6/6/6
f 7/7/7 9/9/9 10/10/10 8/8/8
f 11/11/11 12/12/12 10/10/10 9/9/9
f 14/14/14 4/4/4 3/3/3 13/13/13
f 13/13/13 3/3/3 6/6/6 15/15/15
f 6/6/6 8/8/8 16/16/16 15/15/15
f 10/10/10 17/17/17 16/16/16 8/8/8
f 12/12/12 18/18/18 17/17/17 10/10/10
f 20/20/20 14/14/14 13/13/13 19/19/19
f 19/19/19 13/13/13 15/15/15 21/21/21
f 15/15/15 16/16/16 22/22/22 21/21/21
f 17/17/17 23/23/23 22/22/22 16/16/16
f 18/18/18 24/24/24 23/23/23 17/17/17
f 26/26/26 20/20/20 19/19/19 25/25/25
f 25/25/25 19/19/19 21/21/21 27/27/27
f 21/21/21 22/22/22 28/28/28 27/27/27
f 23/23/23 29/29/29 28/28/28 22/22/22
f 24/24/24 30/30/30 29/29/29 23/23/23
f 32/32/32 26/26/26 25/25/25 31/31/31
f 31/31/31 25/25/25 27/27/27 33/33/33
f 34/34/34 33/33/33 27/27/27 28/28/28
f 29/29/29 35/35/35 34/34/34 28/28/28
f 30/30/30 36/36/36 35/35/35 29/29/29
f 38/38/38 32/32/32 31/31/31 37/37/37
f 37/37/37 31/31/31 33/33/33 39/39/39
f 40/40/40 39/39/39 33/33/33 34/34/34
f 35/35/35 41/41/41 40/40/40 34/34/34
f 36/36/36 42/42/42 41/41/41 35/35/35
f 44/44/44 38/38/38 37/37/37 43/43/43
f 43/43/43 37/37/37 39/39/39 45/45/45
f 46/46/46 45/45/45 39/39/39 40/40/40
f 41/41/41 47/47/47 46/46/46 40/40/40
f 42/42/42 48/48/48 47/47/47 41/41/41
f 50/50/50 44/44/44 43/43/43 49/49/49
f 51/51/51 49/49/49 43/43/43 45/45/45
f 52/52/52 51/51/51 45/45/45 46/46/46
f 53/53/53 52/52/52 46/46/46 47/47/47
f 48/48/48 54/54/54 53/53/53 47/47/47
f 2/2/2 1/1/1 55/55/55
f 5/5/5 2/2/2 55/55/55
f 7/7/7 5/5/5 55/55/55
f 9/9/9 7/7/7 55/55/55
f 11/11/11 9/9/9 55/55/55
f 50/50/50 49/49/49 56/56/56
f 49/49/49 51/51/51 56/56/56
f 51/51/51 52/52/52 56/56/56
f 52/52/52 53/53/53 56/56/56
f 53/53/53 54/54/54 56/56/56

# Mesh
g KitchenFanLow group4 polySurface9
usemtl initialShadingGroup
f 58/58/58 59/59/59 60/60/59 57/57/57
f 62/62/60 59/59/60 58/58/60 61/61/60
f 62/62/61 61/61/61 63/63/61 64/64/61
f 60/66/63 64/64/63 63/63/62 57/65/57
f 66/68/65 67/69/66 68/70/67 65/67/64
f 69/73/68 70/74/69 66/71/65 65/72/64
f 71/77/70 72/78/71 68/75/67 67/76/66
f 70/74/72 69/73/72 73/79/72
f 77/83/76 74/80/73 75/81/74 76/82/75
f 78/84/77 79/85/78 75/81/74 74/80/73
f 80/86/79 81/87/80 77/83/76 76/82/75
f 81/89/80 58/90/58 57/91/57 77/88/76
f 81/89/80 78/92/77 61/93/81 58/90/58
f 61/93/81 78/92/77 74/94/73 63/95/62
f 57/91/57 63/95/62 74/94/73 77/88/76
f 79/85/78 69/96/68 65/97/64 75/81/74
f 72/99/71 80/86/79 76/82/75 68/98/67
f 65/97/64 68/98/67 76/82/75 75/81/74
f 84/102/84 85/103/85 82/100/82 83/101/83
f 82/100/82 86/104/86 87/105/87 83/101/83
f 88/106/88 89/107/89 87/105/87 86/104/86
f 85/103/85 90/108/90 91/109/90 82/100/82
f 93/111/91 88/106/88 86/104/86 92/110/91
f 91/109/92 92/110/92 86/104/86 82/100/82
f 70/74/69 84/112/84 83/113/83 66/71/65
f 89/115/89 71/77/70 67/76/66 87/114/87
f 83/116/83 87/117/87 67/69/66 66/68/65

# Mesh
g KitchenFanLow group4 polySurface8
usemtl initialShadingGroup
f 59/119/93 62/120/93 64/121/93 60/118/93
